<svg width="26" height="25" viewBox="0 0 26 25" fill="none" xmlns="http://www.w3.org/2000/svg">
<path d="M9.89654 21.5931V18.4299C9.89654 17.6224 10.5798 16.9679 11.4227 16.9679H14.5038C14.9086 16.9679 15.2968 17.1219 15.583 17.3961C15.8692 17.6703 16.03 18.0421 16.03 18.4299V21.5931C16.0274 21.9288 16.1648 22.2515 16.4117 22.4898C16.6586 22.728 16.9945 22.862 17.345 22.862H19.447C20.4288 22.8644 21.3712 22.4925 22.0663 21.8284C22.7614 21.1642 23.1521 20.2623 23.1521 19.3218V10.3105C23.152 9.55077 22.8005 8.83013 22.1922 8.34271L15.0413 2.87154C13.7974 1.91225 12.0152 1.94323 10.8084 2.9451L3.82069 8.34271C3.18364 8.81576 2.80287 9.53854 2.78406 10.3105V19.3126C2.78406 21.2729 4.44285 22.862 6.48908 22.862H8.54315C9.27097 22.862 9.86247 22.2995 9.86774 21.6023L9.89654 21.5931Z" fill="#9FA5C0"/>
</svg>
