<svg width="433" height="602" viewBox="0 0 433 602" fill="none" xmlns="http://www.w3.org/2000/svg">
<path d="M26.2871 584.366C24.666 584.366 23.25 584.122 22.0391 583.634C20.8281 583.146 19.8711 582.447 19.168 581.539C18.4746 580.631 18.084 579.547 17.9961 578.287L17.9814 578.067H21.585L21.6143 578.243C21.7217 578.849 21.9854 579.371 22.4053 579.811C22.8252 580.25 23.377 580.592 24.0605 580.836C24.7539 581.07 25.54 581.188 26.4189 581.188C27.3076 581.188 28.0742 581.065 28.7188 580.821C29.373 580.577 29.876 580.23 30.2275 579.781C30.5791 579.322 30.7549 578.79 30.7549 578.185V578.17C30.7549 577.379 30.457 576.754 29.8613 576.295C29.2754 575.836 28.2988 575.46 26.9316 575.167L24.6611 574.698C22.5908 574.269 21.0381 573.565 20.0029 572.589C18.9678 571.603 18.4502 570.323 18.4502 568.751V568.736C18.46 567.486 18.7969 566.397 19.4609 565.47C20.1348 564.532 21.0625 563.805 22.2441 563.287C23.4258 562.76 24.7734 562.496 26.2871 562.496C27.8203 562.496 29.1631 562.75 30.3154 563.258C31.4678 563.766 32.3711 564.474 33.0254 565.382C33.6895 566.29 34.0557 567.345 34.124 568.546L34.1387 568.795H30.5352L30.5059 568.604C30.418 567.989 30.1885 567.467 29.8174 567.037C29.4463 566.598 28.958 566.261 28.3525 566.026C27.7471 565.792 27.0488 565.675 26.2578 565.675C25.4375 565.675 24.7246 565.797 24.1191 566.041C23.5234 566.275 23.0596 566.607 22.7275 567.037C22.4053 567.467 22.2441 567.965 22.2441 568.531V568.546C22.2441 569.288 22.542 569.894 23.1377 570.362C23.7432 570.821 24.6807 571.183 25.9502 571.446L28.2207 571.915C29.6953 572.218 30.8965 572.628 31.8242 573.146C32.752 573.663 33.4355 574.312 33.875 575.094C34.3242 575.875 34.5488 576.812 34.5488 577.906V577.921C34.5488 579.229 34.2168 580.367 33.5527 581.334C32.8984 582.301 31.9512 583.048 30.7109 583.575C29.4805 584.103 28.0059 584.366 26.2871 584.366ZM37.1123 584V562.862H40.7598V584H37.1123ZM50.6914 584.308C49.1387 584.308 47.8008 583.98 46.6777 583.326C45.5645 582.672 44.71 581.744 44.1143 580.543C43.5186 579.342 43.2207 577.921 43.2207 576.28V576.266C43.2207 574.635 43.5186 573.214 44.1143 572.003C44.7197 570.782 45.5645 569.835 46.6484 569.161C47.7422 568.487 49.0312 568.15 50.5156 568.15C51.9902 568.15 53.2646 568.478 54.3389 569.132C55.4229 569.776 56.2529 570.685 56.8291 571.856C57.415 573.028 57.708 574.396 57.708 575.958V577.13H45.0225V574.698H55.9648L54.207 576.969V575.562C54.207 574.547 54.0508 573.702 53.7383 573.028C53.4258 572.354 52.9961 571.852 52.4492 571.52C51.9023 571.178 51.2725 571.007 50.5596 571.007C49.8369 571.007 49.1924 571.183 48.626 571.534C48.0693 571.876 47.6299 572.389 47.3076 573.072C46.9951 573.756 46.8389 574.586 46.8389 575.562V576.969C46.8389 577.916 46.9951 578.727 47.3076 579.4C47.6299 580.064 48.084 580.577 48.6699 580.938C49.2559 581.29 49.9541 581.466 50.7646 581.466C51.3701 581.466 51.9023 581.373 52.3613 581.188C52.8203 580.992 53.1963 580.743 53.4893 580.44C53.792 580.138 54.002 579.811 54.1191 579.459L54.1484 579.356H57.5469L57.5176 579.518C57.3906 580.113 57.1562 580.699 56.8145 581.275C56.4727 581.842 56.0137 582.354 55.4375 582.813C54.8613 583.272 54.1777 583.639 53.3867 583.912C52.5957 584.176 51.6973 584.308 50.6914 584.308ZM66.8633 584.308C65.3105 584.308 63.9727 583.98 62.8496 583.326C61.7363 582.672 60.8818 581.744 60.2861 580.543C59.6904 579.342 59.3926 577.921 59.3926 576.28V576.266C59.3926 574.635 59.6904 573.214 60.2861 572.003C60.8916 570.782 61.7363 569.835 62.8203 569.161C63.9141 568.487 65.2031 568.15 66.6875 568.15C68.1621 568.15 69.4365 568.478 70.5107 569.132C71.5947 569.776 72.4248 570.685 73.001 571.856C73.5869 573.028 73.8799 574.396 73.8799 575.958V577.13H61.1943V574.698H72.1367L70.3789 576.969V575.562C70.3789 574.547 70.2227 573.702 69.9102 573.028C69.5977 572.354 69.168 571.852 68.6211 571.52C68.0742 571.178 67.4443 571.007 66.7314 571.007C66.0088 571.007 65.3643 571.183 64.7979 571.534C64.2412 571.876 63.8018 572.389 63.4795 573.072C63.167 573.756 63.0107 574.586 63.0107 575.562V576.969C63.0107 577.916 63.167 578.727 63.4795 579.4C63.8018 580.064 64.2559 580.577 64.8418 580.938C65.4277 581.29 66.126 581.466 66.9365 581.466C67.542 581.466 68.0742 581.373 68.5332 581.188C68.9922 580.992 69.3682 580.743 69.6611 580.44C69.9639 580.138 70.1738 579.811 70.291 579.459L70.3203 579.356H73.7188L73.6895 579.518C73.5625 580.113 73.3281 580.699 72.9863 581.275C72.6445 581.842 72.1855 582.354 71.6094 582.813C71.0332 583.272 70.3496 583.639 69.5586 583.912C68.7676 584.176 67.8691 584.308 66.8633 584.308ZM76.209 589.127V568.473H79.8418V571.153H79.9297C80.2324 570.528 80.6133 569.996 81.0723 569.557C81.541 569.107 82.083 568.761 82.6982 568.517C83.3232 568.272 84.002 568.15 84.7344 568.15C86.0527 568.15 87.1904 568.478 88.1475 569.132C89.1143 569.776 89.8564 570.704 90.374 571.915C90.9014 573.126 91.165 574.566 91.165 576.236V576.251C91.165 577.911 90.9014 579.347 90.374 580.558C89.8564 581.759 89.1191 582.687 88.1621 583.341C87.2148 583.985 86.0918 584.308 84.793 584.308C84.0605 584.308 83.377 584.19 82.7422 583.956C82.1172 583.722 81.5654 583.385 81.0869 582.945C80.6084 582.506 80.2227 581.983 79.9297 581.378H79.8418V589.127H76.209ZM83.665 581.246C84.4463 581.246 85.1201 581.041 85.6865 580.631C86.2529 580.221 86.6875 579.645 86.9902 578.902C87.3027 578.15 87.459 577.267 87.459 576.251V576.236C87.459 575.191 87.3027 574.298 86.9902 573.556C86.6875 572.804 86.248 572.228 85.6719 571.827C85.1055 571.427 84.4365 571.227 83.665 571.227C82.9131 571.227 82.249 571.432 81.6729 571.842C81.0967 572.252 80.6426 572.833 80.3105 573.585C79.9883 574.327 79.8271 575.211 79.8271 576.236V576.251C79.8271 577.267 79.9883 578.15 80.3105 578.902C80.6426 579.645 81.0967 580.221 81.6729 580.631C82.249 581.041 82.9131 581.246 83.665 581.246ZM105.096 584V566.041H98.7676V562.862H115.174V566.041H108.86V584H105.096ZM116.829 584V568.473H120.477V584H116.829ZM118.646 566.246C118.079 566.246 117.601 566.051 117.21 565.66C116.819 565.27 116.624 564.801 116.624 564.254C116.624 563.697 116.819 563.229 117.21 562.848C117.601 562.457 118.079 562.262 118.646 562.262C119.222 562.262 119.705 562.457 120.096 562.848C120.486 563.229 120.682 563.697 120.682 564.254C120.682 564.801 120.486 565.27 120.096 565.66C119.705 566.051 119.222 566.246 118.646 566.246ZM130.584 589.435C129.217 589.435 128.021 589.244 126.995 588.863C125.979 588.492 125.169 587.979 124.563 587.325C123.958 586.671 123.582 585.938 123.436 585.128L123.406 584.996H126.98L127.039 585.113C127.234 585.562 127.635 585.934 128.24 586.227C128.855 586.529 129.632 586.681 130.569 586.681C131.761 586.681 132.674 586.388 133.309 585.802C133.943 585.216 134.261 584.43 134.261 583.443V581.202H134.188C133.904 581.759 133.523 582.237 133.045 582.638C132.576 583.038 132.024 583.351 131.39 583.575C130.765 583.8 130.081 583.912 129.339 583.912C128.04 583.912 126.907 583.595 125.94 582.96C124.983 582.325 124.241 581.427 123.714 580.265C123.196 579.093 122.938 577.701 122.938 576.09V576.075C122.938 574.435 123.201 573.028 123.729 571.856C124.266 570.675 125.018 569.762 125.984 569.117C126.951 568.473 128.089 568.15 129.397 568.15C130.13 568.15 130.804 568.277 131.419 568.531C132.034 568.775 132.571 569.117 133.03 569.557C133.499 569.996 133.88 570.514 134.173 571.109H134.261V568.473H137.908V583.561C137.908 584.732 137.61 585.758 137.015 586.637C136.419 587.525 135.574 588.214 134.48 588.702C133.387 589.19 132.088 589.435 130.584 589.435ZM130.481 581.1C131.243 581.1 131.907 580.899 132.474 580.499C133.04 580.089 133.479 579.513 133.792 578.771C134.114 578.028 134.275 577.159 134.275 576.163V576.148C134.275 575.143 134.114 574.273 133.792 573.541C133.47 572.799 133.025 572.228 132.459 571.827C131.893 571.427 131.233 571.227 130.481 571.227C129.7 571.227 129.021 571.427 128.445 571.827C127.869 572.228 127.425 572.794 127.112 573.526C126.8 574.259 126.644 575.133 126.644 576.148V576.163C126.644 577.179 126.8 578.058 127.112 578.8C127.425 579.532 127.869 580.099 128.445 580.499C129.021 580.899 129.7 581.1 130.481 581.1ZM140.999 584V562.862H144.646V571.08H144.72C145.13 570.143 145.74 569.42 146.551 568.912C147.371 568.404 148.357 568.15 149.51 568.15C150.633 568.15 151.604 568.409 152.425 568.927C153.245 569.435 153.88 570.152 154.329 571.08C154.778 571.998 155.003 573.082 155.003 574.332V584H151.355V575.05C151.355 573.858 151.067 572.926 150.491 572.252C149.915 571.568 149.104 571.227 148.06 571.227C147.376 571.227 146.775 571.393 146.258 571.725C145.75 572.047 145.354 572.496 145.071 573.072C144.788 573.639 144.646 574.298 144.646 575.05V584H140.999ZM163.704 584.308C162.093 584.308 160.892 583.956 160.101 583.253C159.319 582.55 158.929 581.397 158.929 579.796V571.285H156.731V568.473H158.929V564.532H162.635V568.473H165.521V571.285H162.635V579.503C162.635 580.255 162.801 580.777 163.133 581.07C163.475 581.354 163.973 581.495 164.627 581.495C164.812 581.495 164.974 581.49 165.11 581.48C165.257 581.461 165.394 581.446 165.521 581.437V584.176C165.306 584.205 165.042 584.234 164.729 584.264C164.427 584.293 164.085 584.308 163.704 584.308ZM170.003 584.234C169.407 584.234 168.904 584.029 168.494 583.619C168.084 583.209 167.879 582.711 167.879 582.125C167.879 581.529 168.084 581.026 168.494 580.616C168.904 580.206 169.407 580.001 170.003 580.001C170.589 580.001 171.087 580.206 171.497 580.616C171.907 581.026 172.112 581.529 172.112 582.125C172.112 582.711 171.907 583.209 171.497 583.619C171.087 584.029 170.589 584.234 170.003 584.234ZM184.168 584L178.499 562.862H182.425L186.102 578.814H186.175L190.408 562.862H193.836L198.069 578.814H198.143L201.819 562.862H205.73L200.076 584H196.429L192.166 568.824H192.078L187.815 584H184.168ZM212.996 584.308C211.443 584.308 210.105 583.98 208.982 583.326C207.869 582.672 207.015 581.744 206.419 580.543C205.823 579.342 205.525 577.921 205.525 576.28V576.266C205.525 574.635 205.823 573.214 206.419 572.003C207.024 570.782 207.869 569.835 208.953 569.161C210.047 568.487 211.336 568.15 212.82 568.15C214.295 568.15 215.569 568.478 216.644 569.132C217.728 569.776 218.558 570.685 219.134 571.856C219.72 573.028 220.013 574.396 220.013 575.958V577.13H207.327V574.698H218.27L216.512 576.969V575.562C216.512 574.547 216.355 573.702 216.043 573.028C215.73 572.354 215.301 571.852 214.754 571.52C214.207 571.178 213.577 571.007 212.864 571.007C212.142 571.007 211.497 571.183 210.931 571.534C210.374 571.876 209.935 572.389 209.612 573.072C209.3 573.756 209.144 574.586 209.144 575.562V576.969C209.144 577.916 209.3 578.727 209.612 579.4C209.935 580.064 210.389 580.577 210.975 580.938C211.561 581.29 212.259 581.466 213.069 581.466C213.675 581.466 214.207 581.373 214.666 581.188C215.125 580.992 215.501 580.743 215.794 580.44C216.097 580.138 216.307 579.811 216.424 579.459L216.453 579.356H219.852L219.822 579.518C219.695 580.113 219.461 580.699 219.119 581.275C218.777 581.842 218.318 582.354 217.742 582.813C217.166 583.272 216.482 583.639 215.691 583.912C214.9 584.176 214.002 584.308 212.996 584.308ZM221.038 570.626L222.181 562.862H225.726L223.572 570.626H221.038ZM228.157 584V562.862H231.805V584H228.157ZM235.013 584V562.862H238.66V584H235.013ZM250.848 584L246.629 568.473H250.291L252.913 580.396H252.986L256.019 568.473H259.505L262.552 580.396H262.625L265.247 568.473H268.851L264.661 584H260.823L257.762 572.647H257.688L254.642 584H250.848ZM274.827 584.264C273.802 584.264 272.894 584.068 272.103 583.678C271.321 583.277 270.711 582.726 270.271 582.022C269.842 581.31 269.627 580.494 269.627 579.576V579.547C269.627 578.619 269.856 577.828 270.315 577.174C270.784 576.51 271.458 575.987 272.337 575.606C273.216 575.216 274.28 574.981 275.53 574.903L281.463 574.537V576.954L276.043 577.291C275.145 577.35 274.456 577.564 273.978 577.936C273.499 578.307 273.26 578.8 273.26 579.415V579.43C273.26 580.064 273.499 580.567 273.978 580.938C274.466 581.3 275.11 581.48 275.911 581.48C276.614 581.48 277.239 581.339 277.786 581.056C278.343 580.772 278.782 580.387 279.104 579.898C279.427 579.41 279.588 578.858 279.588 578.243V573.585C279.588 572.804 279.339 572.188 278.841 571.739C278.353 571.28 277.645 571.051 276.717 571.051C275.857 571.051 275.169 571.236 274.651 571.607C274.134 571.969 273.812 572.438 273.685 573.014L273.655 573.146H270.286L270.301 572.97C270.379 572.052 270.687 571.231 271.224 570.509C271.761 569.776 272.503 569.2 273.45 568.78C274.407 568.36 275.54 568.15 276.849 568.15C278.147 568.15 279.271 568.365 280.218 568.795C281.175 569.225 281.912 569.825 282.43 570.597C282.957 571.368 283.221 572.276 283.221 573.321V584H279.588V581.612H279.5C279.207 582.149 278.826 582.618 278.357 583.019C277.889 583.419 277.352 583.727 276.746 583.941C276.15 584.156 275.511 584.264 274.827 584.264ZM286.341 584V562.862H289.974V584H286.341ZM296.126 584L290.926 576.939L293.255 574.244L300.33 584H296.126ZM289.446 579.166V574.918H290.062L295.862 568.473H300.066L292.83 576.339H292.156L289.446 579.166ZM307.83 584.308C306.277 584.308 304.939 583.98 303.816 583.326C302.703 582.672 301.849 581.744 301.253 580.543C300.657 579.342 300.359 577.921 300.359 576.28V576.266C300.359 574.635 300.657 573.214 301.253 572.003C301.858 570.782 302.703 569.835 303.787 569.161C304.881 568.487 306.17 568.15 307.654 568.15C309.129 568.15 310.403 568.478 311.478 569.132C312.562 569.776 313.392 570.685 313.968 571.856C314.554 573.028 314.847 574.396 314.847 575.958V577.13H302.161V574.698H313.104L311.346 576.969V575.562C311.346 574.547 311.189 573.702 310.877 573.028C310.564 572.354 310.135 571.852 309.588 571.52C309.041 571.178 308.411 571.007 307.698 571.007C306.976 571.007 306.331 571.183 305.765 571.534C305.208 571.876 304.769 572.389 304.446 573.072C304.134 573.756 303.978 574.586 303.978 575.562V576.969C303.978 577.916 304.134 578.727 304.446 579.4C304.769 580.064 305.223 580.577 305.809 580.938C306.395 581.29 307.093 581.466 307.903 581.466C308.509 581.466 309.041 581.373 309.5 581.188C309.959 580.992 310.335 580.743 310.628 580.44C310.931 580.138 311.141 579.811 311.258 579.459L311.287 579.356H314.686L314.656 579.518C314.529 580.113 314.295 580.699 313.953 581.275C313.611 581.842 313.152 582.354 312.576 582.813C312 583.272 311.316 583.639 310.525 583.912C309.734 584.176 308.836 584.308 307.83 584.308ZM325.291 589.156C324.939 589.156 324.593 589.137 324.251 589.098C323.919 589.068 323.641 589.034 323.416 588.995V586.227C323.553 586.246 323.724 586.271 323.929 586.3C324.134 586.329 324.368 586.344 324.632 586.344C325.335 586.344 325.892 586.222 326.302 585.978C326.712 585.743 327.034 585.299 327.269 584.645L327.488 584.015L321.907 568.473H325.877L329.744 581.656L329.188 580.895H329.964L329.407 581.656L333.274 568.473H337.112L331.517 584.527C331.126 585.66 330.652 586.563 330.096 587.237C329.539 587.921 328.865 588.409 328.074 588.702C327.293 589.005 326.365 589.156 325.291 589.156ZM345.11 584.308C343.587 584.308 342.264 583.985 341.141 583.341C340.018 582.687 339.144 581.759 338.519 580.558C337.903 579.347 337.596 577.906 337.596 576.236V576.207C337.596 574.547 337.908 573.116 338.533 571.915C339.158 570.704 340.032 569.776 341.155 569.132C342.278 568.478 343.592 568.15 345.096 568.15C346.609 568.15 347.928 568.478 349.051 569.132C350.184 569.776 351.062 570.699 351.688 571.9C352.312 573.102 352.625 574.537 352.625 576.207V576.236C352.625 577.916 352.312 579.361 351.688 580.572C351.072 581.773 350.203 582.696 349.08 583.341C347.957 583.985 346.634 584.308 345.11 584.308ZM345.125 581.363C345.896 581.363 346.565 581.163 347.132 580.763C347.698 580.362 348.133 579.781 348.436 579.02C348.748 578.248 348.904 577.32 348.904 576.236V576.207C348.904 575.133 348.748 574.215 348.436 573.453C348.123 572.691 347.679 572.11 347.103 571.71C346.536 571.31 345.867 571.109 345.096 571.109C344.344 571.109 343.68 571.31 343.104 571.71C342.537 572.11 342.093 572.691 341.771 573.453C341.458 574.215 341.302 575.133 341.302 576.207V576.236C341.302 577.32 341.458 578.248 341.771 579.02C342.093 579.781 342.537 580.362 343.104 580.763C343.68 581.163 344.354 581.363 345.125 581.363ZM360.257 584.308C359.114 584.308 358.143 584.078 357.342 583.619C356.551 583.15 355.945 582.481 355.525 581.612C355.105 580.743 354.896 579.713 354.896 578.521V568.473H358.528V577.789C358.528 578.893 358.787 579.747 359.305 580.353C359.822 580.948 360.604 581.246 361.648 581.246C362.166 581.246 362.635 581.158 363.055 580.982C363.484 580.797 363.851 580.538 364.153 580.206C364.456 579.874 364.686 579.479 364.842 579.02C364.998 578.551 365.076 578.033 365.076 577.467V568.473H368.724V584H365.076V581.568H365.003C364.729 582.115 364.373 582.599 363.934 583.019C363.494 583.429 362.967 583.746 362.352 583.971C361.736 584.195 361.038 584.308 360.257 584.308ZM383.05 584.308C381.907 584.308 380.936 584.078 380.135 583.619C379.344 583.15 378.738 582.481 378.318 581.612C377.898 580.743 377.688 579.713 377.688 578.521V568.473H381.321V577.789C381.321 578.893 381.58 579.747 382.098 580.353C382.615 580.948 383.396 581.246 384.441 581.246C384.959 581.246 385.428 581.158 385.848 580.982C386.277 580.797 386.644 580.538 386.946 580.206C387.249 579.874 387.479 579.479 387.635 579.02C387.791 578.551 387.869 578.033 387.869 577.467V568.473H391.517V584H387.869V581.568H387.796C387.522 582.115 387.166 582.599 386.727 583.019C386.287 583.429 385.76 583.746 385.145 583.971C384.529 584.195 383.831 584.308 383.05 584.308ZM394.52 589.127V568.473H398.152V571.153H398.24C398.543 570.528 398.924 569.996 399.383 569.557C399.852 569.107 400.394 568.761 401.009 568.517C401.634 568.272 402.312 568.15 403.045 568.15C404.363 568.15 405.501 568.478 406.458 569.132C407.425 569.776 408.167 570.704 408.685 571.915C409.212 573.126 409.476 574.566 409.476 576.236V576.251C409.476 577.911 409.212 579.347 408.685 580.558C408.167 581.759 407.43 582.687 406.473 583.341C405.525 583.985 404.402 584.308 403.104 584.308C402.371 584.308 401.688 584.19 401.053 583.956C400.428 583.722 399.876 583.385 399.397 582.945C398.919 582.506 398.533 581.983 398.24 581.378H398.152V589.127H394.52ZM401.976 581.246C402.757 581.246 403.431 581.041 403.997 580.631C404.563 580.221 404.998 579.645 405.301 578.902C405.613 578.15 405.77 577.267 405.77 576.251V576.236C405.77 575.191 405.613 574.298 405.301 573.556C404.998 572.804 404.559 572.228 403.982 571.827C403.416 571.427 402.747 571.227 401.976 571.227C401.224 571.227 400.56 571.432 399.983 571.842C399.407 572.252 398.953 572.833 398.621 573.585C398.299 574.327 398.138 575.211 398.138 576.236V576.251C398.138 577.267 398.299 578.15 398.621 578.902C398.953 579.645 399.407 580.221 399.983 580.631C400.56 581.041 401.224 581.246 401.976 581.246ZM413.196 584.234C412.601 584.234 412.098 584.029 411.688 583.619C411.277 583.209 411.072 582.711 411.072 582.125C411.072 581.529 411.277 581.026 411.688 580.616C412.098 580.206 412.601 580.001 413.196 580.001C413.782 580.001 414.28 580.206 414.69 580.616C415.101 581.026 415.306 581.529 415.306 582.125C415.306 582.711 415.101 583.209 414.69 583.619C414.28 584.029 413.782 584.234 413.196 584.234Z" fill="white"/>
<path d="M26.2871 584.366C24.666 584.366 23.25 584.122 22.0391 583.634C20.8281 583.146 19.8711 582.447 19.168 581.539C18.4746 580.631 18.084 579.547 17.9961 578.287L17.9814 578.067H21.585L21.6143 578.243C21.7217 578.849 21.9854 579.371 22.4053 579.811C22.8252 580.25 23.377 580.592 24.0605 580.836C24.7539 581.07 25.54 581.188 26.4189 581.188C27.3076 581.188 28.0742 581.065 28.7188 580.821C29.373 580.577 29.876 580.23 30.2275 579.781C30.5791 579.322 30.7549 578.79 30.7549 578.185V578.17C30.7549 577.379 30.457 576.754 29.8613 576.295C29.2754 575.836 28.2988 575.46 26.9316 575.167L24.6611 574.698C22.5908 574.269 21.0381 573.565 20.0029 572.589C18.9678 571.603 18.4502 570.323 18.4502 568.751V568.736C18.46 567.486 18.7969 566.397 19.4609 565.47C20.1348 564.532 21.0625 563.805 22.2441 563.287C23.4258 562.76 24.7734 562.496 26.2871 562.496C27.8203 562.496 29.1631 562.75 30.3154 563.258C31.4678 563.766 32.3711 564.474 33.0254 565.382C33.6895 566.29 34.0557 567.345 34.124 568.546L34.1387 568.795H30.5352L30.5059 568.604C30.418 567.989 30.1885 567.467 29.8174 567.037C29.4463 566.598 28.958 566.261 28.3525 566.026C27.7471 565.792 27.0488 565.675 26.2578 565.675C25.4375 565.675 24.7246 565.797 24.1191 566.041C23.5234 566.275 23.0596 566.607 22.7275 567.037C22.4053 567.467 22.2441 567.965 22.2441 568.531V568.546C22.2441 569.288 22.542 569.894 23.1377 570.362C23.7432 570.821 24.6807 571.183 25.9502 571.446L28.2207 571.915C29.6953 572.218 30.8965 572.628 31.8242 573.146C32.752 573.663 33.4355 574.312 33.875 575.094C34.3242 575.875 34.5488 576.812 34.5488 577.906V577.921C34.5488 579.229 34.2168 580.367 33.5527 581.334C32.8984 582.301 31.9512 583.048 30.7109 583.575C29.4805 584.103 28.0059 584.366 26.2871 584.366ZM37.1123 584V562.862H40.7598V584H37.1123ZM50.6914 584.308C49.1387 584.308 47.8008 583.98 46.6777 583.326C45.5645 582.672 44.71 581.744 44.1143 580.543C43.5186 579.342 43.2207 577.921 43.2207 576.28V576.266C43.2207 574.635 43.5186 573.214 44.1143 572.003C44.7197 570.782 45.5645 569.835 46.6484 569.161C47.7422 568.487 49.0312 568.15 50.5156 568.15C51.9902 568.15 53.2646 568.478 54.3389 569.132C55.4229 569.776 56.2529 570.685 56.8291 571.856C57.415 573.028 57.708 574.396 57.708 575.958V577.13H45.0225V574.698H55.9648L54.207 576.969V575.562C54.207 574.547 54.0508 573.702 53.7383 573.028C53.4258 572.354 52.9961 571.852 52.4492 571.52C51.9023 571.178 51.2725 571.007 50.5596 571.007C49.8369 571.007 49.1924 571.183 48.626 571.534C48.0693 571.876 47.6299 572.389 47.3076 573.072C46.9951 573.756 46.8389 574.586 46.8389 575.562V576.969C46.8389 577.916 46.9951 578.727 47.3076 579.4C47.6299 580.064 48.084 580.577 48.6699 580.938C49.2559 581.29 49.9541 581.466 50.7646 581.466C51.3701 581.466 51.9023 581.373 52.3613 581.188C52.8203 580.992 53.1963 580.743 53.4893 580.44C53.792 580.138 54.002 579.811 54.1191 579.459L54.1484 579.356H57.5469L57.5176 579.518C57.3906 580.113 57.1562 580.699 56.8145 581.275C56.4727 581.842 56.0137 582.354 55.4375 582.813C54.8613 583.272 54.1777 583.639 53.3867 583.912C52.5957 584.176 51.6973 584.308 50.6914 584.308ZM66.8633 584.308C65.3105 584.308 63.9727 583.98 62.8496 583.326C61.7363 582.672 60.8818 581.744 60.2861 580.543C59.6904 579.342 59.3926 577.921 59.3926 576.28V576.266C59.3926 574.635 59.6904 573.214 60.2861 572.003C60.8916 570.782 61.7363 569.835 62.8203 569.161C63.9141 568.487 65.2031 568.15 66.6875 568.15C68.1621 568.15 69.4365 568.478 70.5107 569.132C71.5947 569.776 72.4248 570.685 73.001 571.856C73.5869 573.028 73.8799 574.396 73.8799 575.958V577.13H61.1943V574.698H72.1367L70.3789 576.969V575.562C70.3789 574.547 70.2227 573.702 69.9102 573.028C69.5977 572.354 69.168 571.852 68.6211 571.52C68.0742 571.178 67.4443 571.007 66.7314 571.007C66.0088 571.007 65.3643 571.183 64.7979 571.534C64.2412 571.876 63.8018 572.389 63.4795 573.072C63.167 573.756 63.0107 574.586 63.0107 575.562V576.969C63.0107 577.916 63.167 578.727 63.4795 579.4C63.8018 580.064 64.2559 580.577 64.8418 580.938C65.4277 581.29 66.126 581.466 66.9365 581.466C67.542 581.466 68.0742 581.373 68.5332 581.188C68.9922 580.992 69.3682 580.743 69.6611 580.44C69.9639 580.138 70.1738 579.811 70.291 579.459L70.3203 579.356H73.7188L73.6895 579.518C73.5625 580.113 73.3281 580.699 72.9863 581.275C72.6445 581.842 72.1855 582.354 71.6094 582.813C71.0332 583.272 70.3496 583.639 69.5586 583.912C68.7676 584.176 67.8691 584.308 66.8633 584.308ZM76.209 589.127V568.473H79.8418V571.153H79.9297C80.2324 570.528 80.6133 569.996 81.0723 569.557C81.541 569.107 82.083 568.761 82.6982 568.517C83.3232 568.272 84.002 568.15 84.7344 568.15C86.0527 568.15 87.1904 568.478 88.1475 569.132C89.1143 569.776 89.8564 570.704 90.374 571.915C90.9014 573.126 91.165 574.566 91.165 576.236V576.251C91.165 577.911 90.9014 579.347 90.374 580.558C89.8564 581.759 89.1191 582.687 88.1621 583.341C87.2148 583.985 86.0918 584.308 84.793 584.308C84.0605 584.308 83.377 584.19 82.7422 583.956C82.1172 583.722 81.5654 583.385 81.0869 582.945C80.6084 582.506 80.2227 581.983 79.9297 581.378H79.8418V589.127H76.209ZM83.665 581.246C84.4463 581.246 85.1201 581.041 85.6865 580.631C86.2529 580.221 86.6875 579.645 86.9902 578.902C87.3027 578.15 87.459 577.267 87.459 576.251V576.236C87.459 575.191 87.3027 574.298 86.9902 573.556C86.6875 572.804 86.248 572.228 85.6719 571.827C85.1055 571.427 84.4365 571.227 83.665 571.227C82.9131 571.227 82.249 571.432 81.6729 571.842C81.0967 572.252 80.6426 572.833 80.3105 573.585C79.9883 574.327 79.8271 575.211 79.8271 576.236V576.251C79.8271 577.267 79.9883 578.15 80.3105 578.902C80.6426 579.645 81.0967 580.221 81.6729 580.631C82.249 581.041 82.9131 581.246 83.665 581.246ZM105.096 584V566.041H98.7676V562.862H115.174V566.041H108.86V584H105.096ZM116.829 584V568.473H120.477V584H116.829ZM118.646 566.246C118.079 566.246 117.601 566.051 117.21 565.66C116.819 565.27 116.624 564.801 116.624 564.254C116.624 563.697 116.819 563.229 117.21 562.848C117.601 562.457 118.079 562.262 118.646 562.262C119.222 562.262 119.705 562.457 120.096 562.848C120.486 563.229 120.682 563.697 120.682 564.254C120.682 564.801 120.486 565.27 120.096 565.66C119.705 566.051 119.222 566.246 118.646 566.246ZM130.584 589.435C129.217 589.435 128.021 589.244 126.995 588.863C125.979 588.492 125.169 587.979 124.563 587.325C123.958 586.671 123.582 585.938 123.436 585.128L123.406 584.996H126.98L127.039 585.113C127.234 585.562 127.635 585.934 128.24 586.227C128.855 586.529 129.632 586.681 130.569 586.681C131.761 586.681 132.674 586.388 133.309 585.802C133.943 585.216 134.261 584.43 134.261 583.443V581.202H134.188C133.904 581.759 133.523 582.237 133.045 582.638C132.576 583.038 132.024 583.351 131.39 583.575C130.765 583.8 130.081 583.912 129.339 583.912C128.04 583.912 126.907 583.595 125.94 582.96C124.983 582.325 124.241 581.427 123.714 580.265C123.196 579.093 122.938 577.701 122.938 576.09V576.075C122.938 574.435 123.201 573.028 123.729 571.856C124.266 570.675 125.018 569.762 125.984 569.117C126.951 568.473 128.089 568.15 129.397 568.15C130.13 568.15 130.804 568.277 131.419 568.531C132.034 568.775 132.571 569.117 133.03 569.557C133.499 569.996 133.88 570.514 134.173 571.109H134.261V568.473H137.908V583.561C137.908 584.732 137.61 585.758 137.015 586.637C136.419 587.525 135.574 588.214 134.48 588.702C133.387 589.19 132.088 589.435 130.584 589.435ZM130.481 581.1C131.243 581.1 131.907 580.899 132.474 580.499C133.04 580.089 133.479 579.513 133.792 578.771C134.114 578.028 134.275 577.159 134.275 576.163V576.148C134.275 575.143 134.114 574.273 133.792 573.541C133.47 572.799 133.025 572.228 132.459 571.827C131.893 571.427 131.233 571.227 130.481 571.227C129.7 571.227 129.021 571.427 128.445 571.827C127.869 572.228 127.425 572.794 127.112 573.526C126.8 574.259 126.644 575.133 126.644 576.148V576.163C126.644 577.179 126.8 578.058 127.112 578.8C127.425 579.532 127.869 580.099 128.445 580.499C129.021 580.899 129.7 581.1 130.481 581.1ZM140.999 584V562.862H144.646V571.08H144.72C145.13 570.143 145.74 569.42 146.551 568.912C147.371 568.404 148.357 568.15 149.51 568.15C150.633 568.15 151.604 568.409 152.425 568.927C153.245 569.435 153.88 570.152 154.329 571.08C154.778 571.998 155.003 573.082 155.003 574.332V584H151.355V575.05C151.355 573.858 151.067 572.926 150.491 572.252C149.915 571.568 149.104 571.227 148.06 571.227C147.376 571.227 146.775 571.393 146.258 571.725C145.75 572.047 145.354 572.496 145.071 573.072C144.788 573.639 144.646 574.298 144.646 575.05V584H140.999ZM163.704 584.308C162.093 584.308 160.892 583.956 160.101 583.253C159.319 582.55 158.929 581.397 158.929 579.796V571.285H156.731V568.473H158.929V564.532H162.635V568.473H165.521V571.285H162.635V579.503C162.635 580.255 162.801 580.777 163.133 581.07C163.475 581.354 163.973 581.495 164.627 581.495C164.812 581.495 164.974 581.49 165.11 581.48C165.257 581.461 165.394 581.446 165.521 581.437V584.176C165.306 584.205 165.042 584.234 164.729 584.264C164.427 584.293 164.085 584.308 163.704 584.308ZM170.003 584.234C169.407 584.234 168.904 584.029 168.494 583.619C168.084 583.209 167.879 582.711 167.879 582.125C167.879 581.529 168.084 581.026 168.494 580.616C168.904 580.206 169.407 580.001 170.003 580.001C170.589 580.001 171.087 580.206 171.497 580.616C171.907 581.026 172.112 581.529 172.112 582.125C172.112 582.711 171.907 583.209 171.497 583.619C171.087 584.029 170.589 584.234 170.003 584.234ZM184.168 584L178.499 562.862H182.425L186.102 578.814H186.175L190.408 562.862H193.836L198.069 578.814H198.143L201.819 562.862H205.73L200.076 584H196.429L192.166 568.824H192.078L187.815 584H184.168ZM212.996 584.308C211.443 584.308 210.105 583.98 208.982 583.326C207.869 582.672 207.015 581.744 206.419 580.543C205.823 579.342 205.525 577.921 205.525 576.28V576.266C205.525 574.635 205.823 573.214 206.419 572.003C207.024 570.782 207.869 569.835 208.953 569.161C210.047 568.487 211.336 568.15 212.82 568.15C214.295 568.15 215.569 568.478 216.644 569.132C217.728 569.776 218.558 570.685 219.134 571.856C219.72 573.028 220.013 574.396 220.013 575.958V577.13H207.327V574.698H218.27L216.512 576.969V575.562C216.512 574.547 216.355 573.702 216.043 573.028C215.73 572.354 215.301 571.852 214.754 571.52C214.207 571.178 213.577 571.007 212.864 571.007C212.142 571.007 211.497 571.183 210.931 571.534C210.374 571.876 209.935 572.389 209.612 573.072C209.3 573.756 209.144 574.586 209.144 575.562V576.969C209.144 577.916 209.3 578.727 209.612 579.4C209.935 580.064 210.389 580.577 210.975 580.938C211.561 581.29 212.259 581.466 213.069 581.466C213.675 581.466 214.207 581.373 214.666 581.188C215.125 580.992 215.501 580.743 215.794 580.44C216.097 580.138 216.307 579.811 216.424 579.459L216.453 579.356H219.852L219.822 579.518C219.695 580.113 219.461 580.699 219.119 581.275C218.777 581.842 218.318 582.354 217.742 582.813C217.166 583.272 216.482 583.639 215.691 583.912C214.9 584.176 214.002 584.308 212.996 584.308ZM221.038 570.626L222.181 562.862H225.726L223.572 570.626H221.038ZM228.157 584V562.862H231.805V584H228.157ZM235.013 584V562.862H238.66V584H235.013ZM250.848 584L246.629 568.473H250.291L252.913 580.396H252.986L256.019 568.473H259.505L262.552 580.396H262.625L265.247 568.473H268.851L264.661 584H260.823L257.762 572.647H257.688L254.642 584H250.848ZM274.827 584.264C273.802 584.264 272.894 584.068 272.103 583.678C271.321 583.277 270.711 582.726 270.271 582.022C269.842 581.31 269.627 580.494 269.627 579.576V579.547C269.627 578.619 269.856 577.828 270.315 577.174C270.784 576.51 271.458 575.987 272.337 575.606C273.216 575.216 274.28 574.981 275.53 574.903L281.463 574.537V576.954L276.043 577.291C275.145 577.35 274.456 577.564 273.978 577.936C273.499 578.307 273.26 578.8 273.26 579.415V579.43C273.26 580.064 273.499 580.567 273.978 580.938C274.466 581.3 275.11 581.48 275.911 581.48C276.614 581.48 277.239 581.339 277.786 581.056C278.343 580.772 278.782 580.387 279.104 579.898C279.427 579.41 279.588 578.858 279.588 578.243V573.585C279.588 572.804 279.339 572.188 278.841 571.739C278.353 571.28 277.645 571.051 276.717 571.051C275.857 571.051 275.169 571.236 274.651 571.607C274.134 571.969 273.812 572.438 273.685 573.014L273.655 573.146H270.286L270.301 572.97C270.379 572.052 270.687 571.231 271.224 570.509C271.761 569.776 272.503 569.2 273.45 568.78C274.407 568.36 275.54 568.15 276.849 568.15C278.147 568.15 279.271 568.365 280.218 568.795C281.175 569.225 281.912 569.825 282.43 570.597C282.957 571.368 283.221 572.276 283.221 573.321V584H279.588V581.612H279.5C279.207 582.149 278.826 582.618 278.357 583.019C277.889 583.419 277.352 583.727 276.746 583.941C276.15 584.156 275.511 584.264 274.827 584.264ZM286.341 584V562.862H289.974V584H286.341ZM296.126 584L290.926 576.939L293.255 574.244L300.33 584H296.126ZM289.446 579.166V574.918H290.062L295.862 568.473H300.066L292.83 576.339H292.156L289.446 579.166ZM307.83 584.308C306.277 584.308 304.939 583.98 303.816 583.326C302.703 582.672 301.849 581.744 301.253 580.543C300.657 579.342 300.359 577.921 300.359 576.28V576.266C300.359 574.635 300.657 573.214 301.253 572.003C301.858 570.782 302.703 569.835 303.787 569.161C304.881 568.487 306.17 568.15 307.654 568.15C309.129 568.15 310.403 568.478 311.478 569.132C312.562 569.776 313.392 570.685 313.968 571.856C314.554 573.028 314.847 574.396 314.847 575.958V577.13H302.161V574.698H313.104L311.346 576.969V575.562C311.346 574.547 311.189 573.702 310.877 573.028C310.564 572.354 310.135 571.852 309.588 571.52C309.041 571.178 308.411 571.007 307.698 571.007C306.976 571.007 306.331 571.183 305.765 571.534C305.208 571.876 304.769 572.389 304.446 573.072C304.134 573.756 303.978 574.586 303.978 575.562V576.969C303.978 577.916 304.134 578.727 304.446 579.4C304.769 580.064 305.223 580.577 305.809 580.938C306.395 581.29 307.093 581.466 307.903 581.466C308.509 581.466 309.041 581.373 309.5 581.188C309.959 580.992 310.335 580.743 310.628 580.44C310.931 580.138 311.141 579.811 311.258 579.459L311.287 579.356H314.686L314.656 579.518C314.529 580.113 314.295 580.699 313.953 581.275C313.611 581.842 313.152 582.354 312.576 582.813C312 583.272 311.316 583.639 310.525 583.912C309.734 584.176 308.836 584.308 307.83 584.308ZM325.291 589.156C324.939 589.156 324.593 589.137 324.251 589.098C323.919 589.068 323.641 589.034 323.416 588.995V586.227C323.553 586.246 323.724 586.271 323.929 586.3C324.134 586.329 324.368 586.344 324.632 586.344C325.335 586.344 325.892 586.222 326.302 585.978C326.712 585.743 327.034 585.299 327.269 584.645L327.488 584.015L321.907 568.473H325.877L329.744 581.656L329.188 580.895H329.964L329.407 581.656L333.274 568.473H337.112L331.517 584.527C331.126 585.66 330.652 586.563 330.096 587.237C329.539 587.921 328.865 588.409 328.074 588.702C327.293 589.005 326.365 589.156 325.291 589.156ZM345.11 584.308C343.587 584.308 342.264 583.985 341.141 583.341C340.018 582.687 339.144 581.759 338.519 580.558C337.903 579.347 337.596 577.906 337.596 576.236V576.207C337.596 574.547 337.908 573.116 338.533 571.915C339.158 570.704 340.032 569.776 341.155 569.132C342.278 568.478 343.592 568.15 345.096 568.15C346.609 568.15 347.928 568.478 349.051 569.132C350.184 569.776 351.062 570.699 351.688 571.9C352.312 573.102 352.625 574.537 352.625 576.207V576.236C352.625 577.916 352.312 579.361 351.688 580.572C351.072 581.773 350.203 582.696 349.08 583.341C347.957 583.985 346.634 584.308 345.11 584.308ZM345.125 581.363C345.896 581.363 346.565 581.163 347.132 580.763C347.698 580.362 348.133 579.781 348.436 579.02C348.748 578.248 348.904 577.32 348.904 576.236V576.207C348.904 575.133 348.748 574.215 348.436 573.453C348.123 572.691 347.679 572.11 347.103 571.71C346.536 571.31 345.867 571.109 345.096 571.109C344.344 571.109 343.68 571.31 343.104 571.71C342.537 572.11 342.093 572.691 341.771 573.453C341.458 574.215 341.302 575.133 341.302 576.207V576.236C341.302 577.32 341.458 578.248 341.771 579.02C342.093 579.781 342.537 580.362 343.104 580.763C343.68 581.163 344.354 581.363 345.125 581.363ZM360.257 584.308C359.114 584.308 358.143 584.078 357.342 583.619C356.551 583.15 355.945 582.481 355.525 581.612C355.105 580.743 354.896 579.713 354.896 578.521V568.473H358.528V577.789C358.528 578.893 358.787 579.747 359.305 580.353C359.822 580.948 360.604 581.246 361.648 581.246C362.166 581.246 362.635 581.158 363.055 580.982C363.484 580.797 363.851 580.538 364.153 580.206C364.456 579.874 364.686 579.479 364.842 579.02C364.998 578.551 365.076 578.033 365.076 577.467V568.473H368.724V584H365.076V581.568H365.003C364.729 582.115 364.373 582.599 363.934 583.019C363.494 583.429 362.967 583.746 362.352 583.971C361.736 584.195 361.038 584.308 360.257 584.308ZM383.05 584.308C381.907 584.308 380.936 584.078 380.135 583.619C379.344 583.15 378.738 582.481 378.318 581.612C377.898 580.743 377.688 579.713 377.688 578.521V568.473H381.321V577.789C381.321 578.893 381.58 579.747 382.098 580.353C382.615 580.948 383.396 581.246 384.441 581.246C384.959 581.246 385.428 581.158 385.848 580.982C386.277 580.797 386.644 580.538 386.946 580.206C387.249 579.874 387.479 579.479 387.635 579.02C387.791 578.551 387.869 578.033 387.869 577.467V568.473H391.517V584H387.869V581.568H387.796C387.522 582.115 387.166 582.599 386.727 583.019C386.287 583.429 385.76 583.746 385.145 583.971C384.529 584.195 383.831 584.308 383.05 584.308ZM394.52 589.127V568.473H398.152V571.153H398.24C398.543 570.528 398.924 569.996 399.383 569.557C399.852 569.107 400.394 568.761 401.009 568.517C401.634 568.272 402.312 568.15 403.045 568.15C404.363 568.15 405.501 568.478 406.458 569.132C407.425 569.776 408.167 570.704 408.685 571.915C409.212 573.126 409.476 574.566 409.476 576.236V576.251C409.476 577.911 409.212 579.347 408.685 580.558C408.167 581.759 407.43 582.687 406.473 583.341C405.525 583.985 404.402 584.308 403.104 584.308C402.371 584.308 401.688 584.19 401.053 583.956C400.428 583.722 399.876 583.385 399.397 582.945C398.919 582.506 398.533 581.983 398.24 581.378H398.152V589.127H394.52ZM401.976 581.246C402.757 581.246 403.431 581.041 403.997 580.631C404.563 580.221 404.998 579.645 405.301 578.902C405.613 578.15 405.77 577.267 405.77 576.251V576.236C405.77 575.191 405.613 574.298 405.301 573.556C404.998 572.804 404.559 572.228 403.982 571.827C403.416 571.427 402.747 571.227 401.976 571.227C401.224 571.227 400.56 571.432 399.983 571.842C399.407 572.252 398.953 572.833 398.621 573.585C398.299 574.327 398.138 575.211 398.138 576.236V576.251C398.138 577.267 398.299 578.15 398.621 578.902C398.953 579.645 399.407 580.221 399.983 580.631C400.56 581.041 401.224 581.246 401.976 581.246ZM413.196 584.234C412.601 584.234 412.098 584.029 411.688 583.619C411.277 583.209 411.072 582.711 411.072 582.125C411.072 581.529 411.277 581.026 411.688 580.616C412.098 580.206 412.601 580.001 413.196 580.001C413.782 580.001 414.28 580.206 414.69 580.616C415.101 581.026 415.306 581.529 415.306 582.125C415.306 582.711 415.101 583.209 414.69 583.619C414.28 584.029 413.782 584.234 413.196 584.234Z" fill="white"/>
<path d="M9.25781 534V477.633H35.4688C46.6406 477.633 53.3984 483.023 53.3984 491.812V491.891C53.3984 498.258 48.5156 503.336 42.1094 504.156V504.43C49.8047 504.82 55.8594 510.406 55.8594 517.789V517.867C55.8594 527.672 48.2422 534 36.1719 534H9.25781ZM31.6797 487.75H23.5938V500.797H30.625C36.3672 500.797 39.4141 498.297 39.4141 494.078V494C39.4141 490.094 36.5234 487.75 31.6797 487.75ZM31.6797 509.82H23.5938V523.883H32.1094C37.9688 523.883 41.2891 521.422 41.2891 516.852V516.773C41.2891 512.281 37.9688 509.82 31.6797 509.82ZM58.7891 534L77.7734 477.633H95.3125L114.297 534H99.2578L95.7422 521.617H77.3438L73.8281 534H58.7891ZM86.4062 489.898L80.3125 511.305H92.7734L86.6797 489.898H86.4062ZM119.727 534V477.633H131.875L154.414 510.172H154.688V477.633H168.984V534H156.953L134.297 501.109H134.023V534H119.727ZM203.828 535.016C186.445 535.016 175.977 524.273 175.977 505.719V505.68C175.977 487.398 186.484 476.617 203.477 476.617C217.305 476.617 227.266 484.742 228.75 495.68L228.828 496.148H214.648L214.531 495.758C213.047 491.188 209.023 488.492 203.516 488.492C195.391 488.492 190.586 494.586 190.586 505.523V505.562C190.586 516.734 195.898 523.141 204.141 523.141C210.625 523.141 215.078 519.625 215.547 513.961L215.586 513.258H204.297V503.102H229.414V510.172C229.414 525.602 219.883 535.016 203.828 535.016ZM260.781 535.016C246.094 535.016 236.523 526.695 236.523 514V477.633H250.859V512.633C250.859 519.195 254.375 523.141 260.82 523.141C267.227 523.141 270.742 519.195 270.742 512.633V477.633H285.078V514C285.078 526.656 275.586 535.016 260.781 535.016ZM293.633 534V477.633H305.781L328.32 510.172H328.594V477.633H342.891V534H330.859L308.203 501.109H307.93V534H293.633ZM351.445 534V477.633H365.781V534H351.445ZM374.336 534V477.633H386.484L409.023 510.172H409.297V477.633H423.594V534H411.562L388.906 501.109H388.633V534H374.336Z" fill="#1FCC79"/>
<path d="M9.25781 534V477.633H35.4688C46.6406 477.633 53.3984 483.023 53.3984 491.812V491.891C53.3984 498.258 48.5156 503.336 42.1094 504.156V504.43C49.8047 504.82 55.8594 510.406 55.8594 517.789V517.867C55.8594 527.672 48.2422 534 36.1719 534H9.25781ZM31.6797 487.75H23.5938V500.797H30.625C36.3672 500.797 39.4141 498.297 39.4141 494.078V494C39.4141 490.094 36.5234 487.75 31.6797 487.75ZM31.6797 509.82H23.5938V523.883H32.1094C37.9688 523.883 41.2891 521.422 41.2891 516.852V516.773C41.2891 512.281 37.9688 509.82 31.6797 509.82ZM58.7891 534L77.7734 477.633H95.3125L114.297 534H99.2578L95.7422 521.617H77.3438L73.8281 534H58.7891ZM86.4062 489.898L80.3125 511.305H92.7734L86.6797 489.898H86.4062ZM119.727 534V477.633H131.875L154.414 510.172H154.688V477.633H168.984V534H156.953L134.297 501.109H134.023V534H119.727ZM203.828 535.016C186.445 535.016 175.977 524.273 175.977 505.719V505.68C175.977 487.398 186.484 476.617 203.477 476.617C217.305 476.617 227.266 484.742 228.75 495.68L228.828 496.148H214.648L214.531 495.758C213.047 491.188 209.023 488.492 203.516 488.492C195.391 488.492 190.586 494.586 190.586 505.523V505.562C190.586 516.734 195.898 523.141 204.141 523.141C210.625 523.141 215.078 519.625 215.547 513.961L215.586 513.258H204.297V503.102H229.414V510.172C229.414 525.602 219.883 535.016 203.828 535.016ZM260.781 535.016C246.094 535.016 236.523 526.695 236.523 514V477.633H250.859V512.633C250.859 519.195 254.375 523.141 260.82 523.141C267.227 523.141 270.742 519.195 270.742 512.633V477.633H285.078V514C285.078 526.656 275.586 535.016 260.781 535.016ZM293.633 534V477.633H305.781L328.32 510.172H328.594V477.633H342.891V534H330.859L308.203 501.109H307.93V534H293.633ZM351.445 534V477.633H365.781V534H351.445ZM374.336 534V477.633H386.484L409.023 510.172H409.297V477.633H423.594V534H411.562L388.906 501.109H388.633V534H374.336Z" fill="#1FCC79"/>
<path d="M80 0.5H353C396.907 0.5 432.5 36.0934 432.5 80V353C432.5 396.907 396.907 432.5 353 432.5H80C36.0934 432.5 0.5 396.907 0.5 353V80C0.5 36.0934 36.0934 0.5 80 0.5Z" fill="#014751" stroke="black"/>
<path d="M80 0.5H353C396.907 0.5 432.5 36.0934 432.5 80V353C432.5 396.907 396.907 432.5 353 432.5H80C36.0934 432.5 0.5 396.907 0.5 353V80C0.5 36.0934 36.0934 0.5 80 0.5Z" fill="#014751" stroke="black"/>
<circle cx="220.5" cy="271.5" r="100.5" fill="white"/>
<path d="M120 117C120 82.7583 147.758 55 182 55V55V335V335C147.758 335 120 307.242 120 273V117Z" fill="white"/>
<path d="M269.28 263.511L274.701 311.552L226.661 316.973C217.159 318.045 207.553 316.276 199.057 311.889C190.561 307.501 183.557 300.693 178.931 292.326C174.304 283.958 172.263 274.406 173.065 264.878C173.867 255.349 177.476 246.273 183.437 238.796C189.397 231.32 197.441 225.778 206.55 222.873C215.66 219.968 225.427 219.829 234.615 222.475C243.804 225.12 252.002 230.431 258.172 237.735C264.342 245.04 268.208 254.01 269.28 263.511V263.511ZM238.041 282.326C241.593 277.87 243.23 272.186 242.591 266.523C241.952 260.86 239.089 255.683 234.633 252.131C230.177 248.579 224.493 246.942 218.83 247.581C213.167 248.22 207.99 251.083 204.438 255.539C200.886 259.995 199.249 265.679 199.888 271.342C200.527 277.005 203.389 282.182 207.845 285.734C212.301 289.286 217.986 290.923 223.649 290.284C229.312 289.645 234.488 286.782 238.041 282.326V282.326ZM229.64 275.629C227.864 277.857 225.275 279.289 222.444 279.608C219.613 279.928 216.77 279.109 214.542 277.333C212.314 275.557 210.883 272.969 210.564 270.137C210.244 267.306 211.063 264.464 212.839 262.236C214.615 260.008 217.203 258.576 220.035 258.257C222.866 257.937 225.708 258.756 227.936 260.532C230.164 262.308 231.595 264.896 231.915 267.728C232.235 270.559 231.416 273.401 229.64 275.629Z" fill="#014751"/>
</svg>
